HIERARCHY
ROOT joint_0
{
	OFFSET 0.000000 0.000000 0.000000
	CHANNELS 6 Xposition Yposition Zposition Zrotation Yrotation Xrotation 
	JOINT joint_1
	{
		OFFSET 0.587158 0.057678 95.682007
		CHANNELS 3 Zrotation Yrotation Xrotation
		JOINT joint_2
		{
			OFFSET -7.116699 -0.219910 87.157959
			CHANNELS 3 Zrotation Yrotation Xrotation
			JOINT joint_3
			{
				OFFSET -5.892822 -0.290222 87.151001
				CHANNELS 3 Zrotation Yrotation Xrotation
				JOINT joint_4
				{
					OFFSET 5.544678 -0.099609 123.768066
					CHANNELS 3 Zrotation Yrotation Xrotation
					JOINT joint_5
					{
						OFFSET 41.981201 4.519775 84.257935
						CHANNELS 3 Zrotation Yrotation Xrotation
						End Site
						{
							OFFSET 0.000000 0.000000 0.000000
						}
					}
				}
				JOINT joint_6
				{
					OFFSET 3.940918 -26.976501 69.308105
					CHANNELS 3 Zrotation Yrotation Xrotation
					JOINT joint_7
					{
						OFFSET 4.776123 -152.592468 -16.842041
						CHANNELS 3 Zrotation Yrotation Xrotation
						JOINT joint_8
						{
							OFFSET 54.421875 -30.424072 -248.864014
							CHANNELS 3 Zrotation Yrotation Xrotation
							JOINT joint_9
							{
								OFFSET 42.120117 -33.387878 -236.524963
								CHANNELS 3 Zrotation Yrotation Xrotation
								End Site
								{
									OFFSET 0.000000 0.000000 0.000000
								}
							}
						}
					}
				}
				JOINT joint_10
				{
					OFFSET 2.312012 26.904114 69.425049
					CHANNELS 3 Zrotation Yrotation Xrotation
					JOINT joint_11
					{
						OFFSET 0.971436 152.197815 -20.626953
						CHANNELS 3 Zrotation Yrotation Xrotation
						JOINT joint_12
						{
							OFFSET 49.954102 28.991455 -249.970093
							CHANNELS 3 Zrotation Yrotation Xrotation
							JOINT joint_13
							{
								OFFSET 48.146973 19.598389 -236.919922
								CHANNELS 3 Zrotation Yrotation Xrotation
								End Site
								{
									OFFSET 0.000000 0.000000 0.000000
								}
							}
						}
					}
				}
			}
		}
	}
	JOINT joint_14
	{
		OFFSET 16.305664 -89.442932 -108.224976
		CHANNELS 3 Zrotation Yrotation Xrotation
		JOINT joint_15
		{
			OFFSET -22.282471 13.437134 -412.904968
			CHANNELS 3 Zrotation Yrotation Xrotation
			JOINT joint_16
			{
				OFFSET -45.426025 14.484802 -445.892029
				CHANNELS 3 Zrotation Yrotation Xrotation
				JOINT joint_17
				{
					OFFSET 173.389404 -9.944031 -76.473001
					CHANNELS 3 Zrotation Yrotation Xrotation
					End Site
					{
						OFFSET 0.000000 0.000000 0.000000
					}
				}
			}
		}
	}
	JOINT joint_18
	{
		OFFSET 13.392822 89.408875 -108.653992
		CHANNELS 3 Zrotation Yrotation Xrotation
		JOINT joint_19
		{
			OFFSET -29.032959 24.483521 -411.977966
			CHANNELS 3 Zrotation Yrotation Xrotation
			JOINT joint_20
			{
				OFFSET -30.530029 28.986328 -446.453018
				CHANNELS 3 Zrotation Yrotation Xrotation
				JOINT joint_21
				{
					OFFSET 170.330078 33.400757 -76.698997
					CHANNELS 3 Zrotation Yrotation Xrotation
					End Site
					{
						OFFSET 0.000000 0.000000 0.000000
					}
				}
			}
		}
	}
}
MOTION
Frames: 14
Frame Time: 0.016667
-1840.219971 950.676697 1052.828979 -2.549055 -4.000032 0.627084 1.641266 7.328225 0.962403 0.547664 -1.428994 -0.365440 0.484621 1.394783 0.159773 -2.383553 -4.899790 5.103460 0.000000 0.000000 0.000000 -0.122987 6.038710 -7.233451 -5.884072 5.448989 -2.958268 -170.545983 -84.052453 -162.434528 0.000000 0.000000 0.000000 2.412078 3.897786 3.055098 6.911980 2.909405 2.903056 -7.768820 -82.175998 -23.202551 0.000000 0.000000 0.000000 0.505446 -13.691049 -11.606943 0.972578 29.483376 6.725990 0.128212 -2.781795 -0.100195 0.000000 0.000000 0.000000 2.301593 -3.239983 2.172965 3.677475 11.646701 0.271309 2.974030 -3.306011 1.937977 0.000000 0.000000 0.000000 
-1840.984375 951.658325 1051.578979 -2.278026 -3.946080 0.990481 2.433136 8.776593 0.521329 0.570793 -1.649806 -0.139662 0.329921 1.605066 0.106837 -2.445044 -5.652968 5.249033 0.000000 0.000000 0.000000 1.225883 5.020779 -8.594902 -8.105421 4.667077 -2.693397 -171.514259 -78.702611 -161.095284 0.000000 0.000000 0.000000 1.347845 2.414029 3.713776 8.362890 1.774732 2.697159 -7.717614 -88.277333 -24.840770 0.000000 0.000000 0.000000 0.292794 -17.498608 -13.107617 1.342392 35.571100 8.179357 0.234395 -1.552085 0.042483 0.000000 0.000000 0.000000 2.139288 -3.702424 1.853481 3.704742 12.309308 -0.022336 3.042646 -3.704758 2.033465 0.000000 0.000000 0.000000 
-1842.044067 951.237244 1050.615967 -1.089609 -3.338116 1.275385 2.776844 9.929154 0.277500 0.107946 -1.929894 -0.001254 -0.293734 1.825361 0.118440 -2.228050 -6.495663 4.863267 0.000000 0.000000 0.000000 1.062710 0.635925 -8.341795 -9.774935 1.372631 -2.639205 -171.644162 -79.447682 -157.497363 0.000000 0.000000 0.000000 0.291443 -1.787478 2.001316 11.716363 -1.958524 5.103224 -6.995229 -88.217913 -30.593533 0.000000 0.000000 0.000000 -0.644447 -21.413159 -14.292100 1.224262 40.531091 8.966885 -0.280402 -0.830717 -0.077263 0.000000 0.000000 0.000000 1.474138 -5.231531 1.750902 3.523500 13.503986 -0.544282 2.917664 -4.143343 2.050597 0.000000 0.000000 0.000000 
-1842.816528 950.040283 1049.916016 0.552397 -2.381476 1.519457 2.809237 10.854203 0.257310 -0.592732 -2.128537 0.012657 -1.048029 1.966159 0.171948 -1.892733 -7.405008 4.290314 0.000000 0.000000 0.000000 0.122172 -5.571691 -6.508688 -11.172564 -3.274699 -2.829145 -171.474981 -84.122016 -152.454912 0.000000 0.000000 0.000000 -0.494456 -7.841307 -1.494910 15.979019 -7.686120 8.768212 -5.784465 -83.671157 -39.655002 0.000000 0.000000 0.000000 -2.023442 -25.510944 -15.245164 0.898315 44.716947 9.302887 -1.126100 -0.385452 -0.324697 0.000000 0.000000 0.000000 0.467820 -7.364558 1.814652 3.271836 14.976846 -1.242073 2.758406 -4.517709 2.038970 0.000000 0.000000 0.000000 
-1841.459473 948.991821 1049.930054 1.730102 -1.426710 1.694931 2.777714 11.537933 0.455373 -1.146733 -2.214516 -0.032646 -1.570209 2.010151 0.192428 -1.625891 -8.096000 3.865021 0.000000 0.000000 0.000000 0.120052 -10.442629 -4.887364 -12.077353 -6.883052 -2.968405 -171.644175 -87.597896 -150.039006 0.000000 0.000000 0.000000 -0.791103 -13.454174 -4.269094 18.646294 -12.946935 10.249423 -4.676641 -77.418876 -46.795577 0.000000 0.000000 0.000000 -3.198130 -29.242451 -15.813156 0.755181 47.158902 9.282994 -1.672264 0.054997 -0.460166 0.000000 0.000000 0.000000 -0.425773 -9.308953 2.079041 3.190652 16.433427 -2.054357 2.778538 -4.683039 2.065537 0.000000 0.000000 0.000000 
-1837.554810 948.381714 1051.121948 2.082087 -0.552406 1.640672 2.950908 12.026012 0.938441 -1.312347 -2.229585 -0.100230 -1.709772 1.993577 0.244841 -1.500525 -8.376505 3.634554 0.000000 0.000000 0.000000 1.977143 -12.306057 -5.439588 -11.816669 -8.383486 -2.966410 -172.182396 -86.603802 -154.023719 0.000000 0.000000 0.000000 -1.054529 -17.736918 -4.583274 18.551906 -15.756669 7.852547 -4.238001 -71.320836 -47.838228 0.000000 0.000000 0.000000 -3.921386 -32.626633 -15.814604 0.933374 47.551199 9.043011 -1.557596 0.492676 -0.366124 0.000000 0.000000 0.000000 -1.071216 -10.919316 2.835540 3.407156 17.936029 -3.161796 3.082158 -4.590762 2.164534 0.000000 0.000000 0.000000 
-1831.519531 947.920288 1053.029053 1.930356 0.336949 1.482228 3.153870 12.290267 1.544808 -1.258530 -2.198657 -0.200901 -1.620737 1.945233 0.313523 -1.442851 -8.427846 3.503576 0.000000 0.000000 0.000000 4.645210 -12.727940 -7.197674 -10.485785 -8.944365 -3.000020 -172.599222 -83.941543 -161.791367 0.000000 0.000000 0.000000 -1.351625 -21.708061 -3.899372 17.223551 -17.190547 4.177356 -4.048284 -65.552946 -45.351742 0.000000 0.000000 0.000000 -4.360089 -35.551144 -15.414005 1.180916 46.137012 8.619642 -1.112845 1.157141 -0.153545 0.000000 0.000000 0.000000 -1.554408 -12.319143 3.830591 3.780104 19.406033 -4.384012 3.530383 -4.297154 2.286100 0.000000 0.000000 0.000000 
-1822.759155 947.675293 1054.704956 1.327702 1.198429 1.595142 3.264827 12.163759 1.868696 -1.079042 -2.094395 -0.279354 -1.404749 1.870241 0.332135 -1.353965 -8.449304 3.351490 0.000000 0.000000 0.000000 6.735893 -13.469356 -8.761403 -9.051480 -9.570707 -3.195427 -172.630495 -82.107811 -168.252691 0.000000 0.000000 0.000000 -1.638473 -25.166704 -3.436353 16.487717 -18.069615 1.757289 -3.558594 -62.023099 -42.734906 0.000000 0.000000 0.000000 -4.358917 -37.339680 -15.046086 1.298981 42.872939 8.008856 -0.690443 2.550216 0.077615 0.000000 0.000000 0.000000 -1.610834 -13.188186 4.247220 4.164158 20.386040 -5.117255 3.931317 -3.987172 2.388483 0.000000 0.000000 0.000000 
-1810.757935 948.195312 1055.937012 -0.015395 2.131954 2.197842 3.308008 11.346515 1.751659 -0.695565 -1.868177 -0.324639 -1.004129 1.790223 0.284622 -1.155674 -8.484395 3.045147 0.000000 0.000000 0.000000 7.758193 -15.279363 -9.533243 -8.277861 -10.709471 -3.666327 -172.274959 -81.509066 -170.941702 0.000000 0.000000 0.000000 -1.729360 -27.678820 -3.365855 16.928705 -18.507576 1.077873 -2.669087 -61.999550 -41.218276 0.000000 0.000000 0.000000 -3.608502 -37.534379 -14.948053 1.324625 36.489113 7.137998 -0.093528 5.467858 0.453639 0.000000 0.000000 0.000000 -0.833751 -13.120938 3.414589 4.563222 20.076655 -4.820732 4.222640 -3.768409 2.474052 0.000000 0.000000 0.000000 
-1796.031372 948.929810 1056.937988 -1.543007 2.950427 3.090103 3.292423 10.383026 1.362608 -0.265134 -1.704879 -0.289345 -0.627500 1.678308 0.208404 -0.903941 -8.470278 2.654987 0.000000 0.000000 0.000000 8.270335 -17.422348 -9.938054 -7.937936 -11.949729 -3.985376 -171.676856 -81.600847 -171.715525 0.000000 0.000000 0.000000 -1.608777 -29.411098 -3.211324 17.503158 -18.464072 1.152043 -1.694708 -63.931825 -39.516367 0.000000 0.000000 0.000000 -2.505240 -36.090164 -15.112978 1.231130 27.580307 6.093762 0.622556 10.191254 1.001576 0.000000 0.000000 0.000000 0.279720 -12.480183 1.863967 4.890822 19.304243 -3.981339 4.410566 -3.477241 2.508940 0.000000 0.000000 0.000000 
-1779.526733 948.297852 1057.406982 -2.385725 3.404014 4.037057 3.112081 9.877473 0.696448 -0.055024 -1.746246 -0.086852 -0.536730 1.558171 0.132699 -0.693284 -8.420239 2.349106 0.000000 0.000000 0.000000 8.518915 -19.220275 -10.052128 -7.519575 -12.933590 -3.745072 -170.852652 -82.821342 -172.063410 0.000000 0.000000 0.000000 -1.397003 -30.535452 -3.055216 17.622718 -18.395653 1.740754 -1.039619 -65.116144 -37.616394 0.000000 0.000000 0.000000 -1.798101 -33.942952 -15.411324 0.792473 20.134734 5.080512 0.722255 14.586333 1.301033 0.000000 0.000000 0.000000 0.898063 -12.296012 0.681207 5.057361 20.063524 -3.639848 4.478844 -3.079163 2.463950 0.000000 0.000000 0.000000 
-1760.818115 945.206177 1056.994995 -2.755524 3.689864 4.772342 2.673052 9.356127 -0.058389 0.057065 -1.766584 0.097614 -0.479045 1.508756 0.026744 -0.589764 -8.279181 2.228491 0.000000 0.000000 0.000000 8.350524 -20.379612 -9.862969 -6.318214 -13.340065 -2.726025 -169.808636 -85.693691 -172.839778 0.000000 0.000000 0.000000 -1.134562 -30.899180 -2.825475 17.255674 -18.575650 2.784597 -1.003719 -64.244798 -35.711019 0.000000 0.000000 0.000000 -1.725823 -32.019436 -15.144831 -0.308033 16.507684 3.932889 -0.337908 16.168461 0.954215 0.000000 0.000000 0.000000 0.908707 -13.110587 0.595664 5.109566 23.061301 -4.302975 4.402171 -2.293151 2.266977 0.000000 0.000000 0.000000 
-1740.332397 940.746887 1056.052002 -2.974812 3.868491 5.322013 2.074770 8.734306 -0.690724 0.167258 -1.743012 0.196713 -0.350575 1.510434 -0.101782 -0.537695 -8.094256 2.174480 0.000000 0.000000 0.000000 7.801629 -21.187012 -9.427138 -4.767481 -13.412120 -1.253823 -168.822760 -89.549643 -173.415902 0.000000 0.000000 0.000000 -0.786052 -30.479378 -2.573883 16.823143 -18.843751 4.047495 -1.309390 -62.765608 -34.108821 0.000000 0.000000 0.000000 -1.954657 -30.102101 -14.489813 -1.821157 14.960838 2.759687 -2.028380 15.798243 0.215166 0.000000 0.000000 0.000000 0.706370 -14.516083 1.261093 5.082744 27.392108 -5.583716 4.168736 -0.990972 1.890401 0.000000 0.000000 0.000000 
-1720.297974 936.613342 1055.317993 -3.058240 3.900627 5.733791 1.496719 8.357523 -1.072843 0.258600 -1.719600 0.312295 -0.230648 1.524152 -0.163450 -0.449436 -8.029441 2.049086 0.000000 0.000000 0.000000 7.353153 -21.820322 -8.943691 -3.516335 -13.423637 -0.114229 11.902147 -87.255041 6.411649 0.000000 0.000000 0.000000 -0.352646 -29.641460 -2.600519 16.634279 -18.942271 4.994179 -1.579979 -62.430710 -33.160157 0.000000 0.000000 0.000000 -2.018106 -28.479321 -14.170276 -3.146027 14.482316 2.097951 -3.555223 14.644036 -0.513787 0.000000 0.000000 0.000000 0.512537 -16.496746 2.440456 5.132714 32.730123 -7.276398 4.003435 0.435964 1.497331 0.000000 0.000000 0.000000 
